<?xml version="1.0" standalone="no"?>
<!DOCTYPE svg PUBLIC "-//W3C//DTD SVG 1.1//EN" "http://www.w3.org/Graphics/SVG/1.1/DTD/svg11.dtd">
<svg version="1.1" width="1200" height="326" onload="init(evt)" viewBox="0 0 1200 326" xmlns="http://www.w3.org/2000/svg" xmlns:xlink="http://www.w3.org/1999/xlink">
<style type="text/css">
	text { font-family:Verdana; font-size:12px; fill:rgb(0,0,0); }
	#search { opacity:0.1; cursor:pointer; }
	#search:hover, #search.show { opacity:1; }
	#subtitle { text-anchor:middle; font-color:rgb(160,160,160); }
	#title { text-anchor:middle; font-size:17px}
	#unzoom { cursor:pointer; }
	#frames > *:hover { stroke:black; stroke-width:0.5; cursor:pointer; }
	.hide { display:none; }
	.parent { opacity:0.5; }
</style>
<script type="text/ecmascript">
<![CDATA[
	"use strict";
	var details, searchbtn, unzoombtn, matchedtxt, svg, searching;
	function init(evt) {
		details = document.getElementById("details").firstChild;
		searchbtn = document.getElementById("search");
		unzoombtn = document.getElementById("unzoom");
		matchedtxt = document.getElementById("matched");
		svg = document.getElementsByTagName("svg")[0];
		searching = 0;
	}

	window.addEventListener("click", function(e) {
		var target = find_group(e.target);
		if (target) {
			if (target.nodeName == "a") {
				if (e.ctrlKey === false) return;
				e.preventDefault();
			}
			if (target.classList.contains("parent")) unzoom();
			zoom(target);
		}
		else if (e.target.id == "unzoom") unzoom();
		else if (e.target.id == "search") search_prompt();
	}, false)

	// mouse-over for info
	// show
	window.addEventListener("mouseover", function(e) {
		var target = find_group(e.target);
		if (target) details.nodeValue = "Function: " + g_to_text(target);
	}, false)

	// clear
	window.addEventListener("mouseout", function(e) {
		var target = find_group(e.target);
		if (target) details.nodeValue = ' ';
	}, false)

	// ctrl-F for search
	window.addEventListener("keydown",function (e) {
		if (e.keyCode === 114 || (e.ctrlKey && e.keyCode === 70)) {
			e.preventDefault();
			search_prompt();
		}
	}, false)

	// functions
	function find_child(node, selector) {
		var children = node.querySelectorAll(selector);
		if (children.length) return children[0];
		return;
	}
	function find_group(node) {
		var parent = node.parentElement;
		if (!parent) return;
		if (parent.id == "frames") return node;
		return find_group(parent);
	}
	function orig_save(e, attr, val) {
		if (e.attributes["_orig_" + attr] != undefined) return;
		if (e.attributes[attr] == undefined) return;
		if (val == undefined) val = e.attributes[attr].value;
		e.setAttribute("_orig_" + attr, val);
	}
	function orig_load(e, attr) {
		if (e.attributes["_orig_"+attr] == undefined) return;
		e.attributes[attr].value = e.attributes["_orig_" + attr].value;
		e.removeAttribute("_orig_"+attr);
	}
	function g_to_text(e) {
		var text = find_child(e, "title").firstChild.nodeValue;
		return (text)
	}
	function g_to_func(e) {
		var func = g_to_text(e);
		// if there's any manipulation we want to do to the function
		// name before it's searched, do it here before returning.
		return (func);
	}
	function update_text(e) {
		var r = find_child(e, "rect");
		var t = find_child(e, "text");
		var w = parseFloat(r.attributes.width.value) -3;
		var txt = find_child(e, "title").textContent.replace(/\([^(]*\)$/,"");
		t.attributes.x.value = parseFloat(r.attributes.x.value) + 3;

		// Smaller than this size won't fit anything
		if (w < 2 * 12 * 0.59) {
			t.textContent = "";
			return;
		}

		t.textContent = txt;
		// Fit in full text width
		if (/^ *$/.test(txt) || t.getSubStringLength(0, txt.length) < w)
			return;

		for (var x = txt.length - 2; x > 0; x--) {
			if (t.getSubStringLength(0, x + 2) <= w) {
				t.textContent = txt.substring(0, x) + "..";
				return;
			}
		}
		t.textContent = "";
	}

	// zoom
	function zoom_reset(e) {
		if (e.attributes != undefined) {
			orig_load(e, "x");
			orig_load(e, "width");
		}
		if (e.childNodes == undefined) return;
		for (var i = 0, c = e.childNodes; i < c.length; i++) {
			zoom_reset(c[i]);
		}
	}
	function zoom_child(e, x, ratio) {
		if (e.attributes != undefined) {
			if (e.attributes.x != undefined) {
				orig_save(e, "x");
				e.attributes.x.value = (parseFloat(e.attributes.x.value) - x - 10) * ratio + 10;
				if (e.tagName == "text")
					e.attributes.x.value = find_child(e.parentNode, "rect[x]").attributes.x.value + 3;
			}
			if (e.attributes.width != undefined) {
				orig_save(e, "width");
				e.attributes.width.value = parseFloat(e.attributes.width.value) * ratio;
			}
		}

		if (e.childNodes == undefined) return;
		for (var i = 0, c = e.childNodes; i < c.length; i++) {
			zoom_child(c[i], x - 10, ratio);
		}
	}
	function zoom_parent(e) {
		if (e.attributes) {
			if (e.attributes.x != undefined) {
				orig_save(e, "x");
				e.attributes.x.value = 10;
			}
			if (e.attributes.width != undefined) {
				orig_save(e, "width");
				e.attributes.width.value = parseInt(svg.width.baseVal.value) - (10 * 2);
			}
		}
		if (e.childNodes == undefined) return;
		for (var i = 0, c = e.childNodes; i < c.length; i++) {
			zoom_parent(c[i]);
		}
	}
	function zoom(node) {
		var attr = find_child(node, "rect").attributes;
		var width = parseFloat(attr.width.value);
		var xmin = parseFloat(attr.x.value);
		var xmax = parseFloat(xmin + width);
		var ymin = parseFloat(attr.y.value);
		var ratio = (svg.width.baseVal.value - 2 * 10) / width;

		// XXX: Workaround for JavaScript float issues (fix me)
		var fudge = 0.0001;

		unzoombtn.classList.remove("hide");

		var el = document.getElementById("frames").children;
		for (var i = 0; i < el.length; i++) {
			var e = el[i];
			var a = find_child(e, "rect").attributes;
			var ex = parseFloat(a.x.value);
			var ew = parseFloat(a.width.value);
			var upstack;
			// Is it an ancestor
			if (0 == 0) {
				upstack = parseFloat(a.y.value) > ymin;
			} else {
				upstack = parseFloat(a.y.value) < ymin;
			}
			if (upstack) {
				// Direct ancestor
				if (ex <= xmin && (ex+ew+fudge) >= xmax) {
					e.classList.add("parent");
					zoom_parent(e);
					update_text(e);
				}
				// not in current path
				else
					e.classList.add("hide");
			}
			// Children maybe
			else {
				// no common path
				if (ex < xmin || ex + fudge >= xmax) {
					e.classList.add("hide");
				}
				else {
					zoom_child(e, xmin, ratio);
					update_text(e);
				}
			}
		}
	}
	function unzoom() {
		unzoombtn.classList.add("hide");
		var el = document.getElementById("frames").children;
		for(var i = 0; i < el.length; i++) {
			el[i].classList.remove("parent");
			el[i].classList.remove("hide");
			zoom_reset(el[i]);
			update_text(el[i]);
		}
	}

	// search
	function reset_search() {
		var el = document.querySelectorAll("#frames rect");
		for (var i = 0; i < el.length; i++) {
			orig_load(el[i], "fill")
		}
	}
	function search_prompt() {
		if (!searching) {
			var term = prompt("Enter a search term (regexp " +
			    "allowed, eg: ^ext4_)", "");
			if (term != null) {
				search(term)
			}
		} else {
			reset_search();
			searching = 0;
			searchbtn.classList.remove("show");
			searchbtn.firstChild.nodeValue = "Search"
			matchedtxt.classList.add("hide");
			matchedtxt.firstChild.nodeValue = ""
		}
	}
	function search(term) {
		var re = new RegExp(term);
		var el = document.getElementById("frames").children;
		var matches = new Object();
		var maxwidth = 0;
		for (var i = 0; i < el.length; i++) {
			var e = el[i];
			var func = g_to_func(e);
			var rect = find_child(e, "rect");
			if (func == null || rect == null)
				continue;

			// Save max width. Only works as we have a root frame
			var w = parseFloat(rect.attributes.width.value);
			if (w > maxwidth)
				maxwidth = w;

			if (func.match(re)) {
				// highlight
				var x = parseFloat(rect.attributes.x.value);
				orig_save(rect, "fill");
				rect.attributes.fill.value = "rgb(230,0,230)";

				// remember matches
				if (matches[x] == undefined) {
					matches[x] = w;
				} else {
					if (w > matches[x]) {
						// overwrite with parent
						matches[x] = w;
					}
				}
				searching = 1;
			}
		}
		if (!searching)
			return;

		searchbtn.classList.add("show");
		searchbtn.firstChild.nodeValue = "Reset Search";

		// calculate percent matched, excluding vertical overlap
		var count = 0;
		var lastx = -1;
		var lastw = 0;
		var keys = Array();
		for (k in matches) {
			if (matches.hasOwnProperty(k))
				keys.push(k);
		}
		// sort the matched frames by their x location
		// ascending, then width descending
		keys.sort(function(a, b){
			return a - b;
		});
		// Step through frames saving only the biggest bottom-up frames
		// thanks to the sort order. This relies on the tree property
		// where children are always smaller than their parents.
		var fudge = 0.0001;	// JavaScript floating point
		for (var k in keys) {
			var x = parseFloat(keys[k]);
			var w = matches[keys[k]];
			if (x >= lastx + lastw - fudge) {
				count += w;
				lastx = x;
				lastw = w;
			}
		}
		// display matched percent
		matchedtxt.classList.remove("hide");
		var pct = 100 * count / maxwidth;
		if (pct != 100) pct = pct.toFixed(1)
		matchedtxt.firstChild.nodeValue = "Matched: " + pct + "%";
	}
]]>
</script>
<rect x="0" y="0" width="100%" height="100%" fill="rgb(240,240,220)"/>
<text id="title" x="600" y="24">Flame Graph</text>
<text id="details" x="10" y="309"> </text>
<text id="unzoom" x="10" y="24" class="hide">Reset Zoom</text>
<text id="search" x="1090" y="24">Search</text>
<text id="matched" x="1090" y="309"> </text>
<g id="frames">
<g>
<title>all (44 samples, 100.00%)</title><rect x="10.0" y="275.0" width="1180.0" height="15" fill="#ee6b6b" rx="2" ry="2"/>
<text x="13.0" y="286.0">all</text>
</g>
<g>
<title>[Attach Listener tid=27395] (1 samples, 2.27%)</title><rect x="10.0" y="259.0" width="26.8" height="15" fill="#e15a5a" rx="2" ry="2"/>
<text x="13.0" y="270.0">[..</text>
</g>
<g>
<title>[not_walkable] (1 samples, 2.27%)</title><rect x="10.0" y="243.0" width="26.8" height="15" fill="#f27171" rx="2" ry="2"/>
<text x="13.0" y="254.0">[..</text>
</g>
<g>
<title>java.lang.String (1 samples, 2.27%)</title><rect x="10.0" y="227.0" width="26.8" height="15" fill="#5fcdcd" rx="2" ry="2"/>
<text x="13.0" y="238.0">j..</text>
</g>
<g>
<title>[NIO Selector #0 tid=23555] (18 samples, 40.91%)</title><rect x="36.8" y="259.0" width="482.7" height="15" fill="#e35c5c" rx="2" ry="2"/>
<text x="39.8" y="270.0">[NIO Selector #0 tid=23555]</text>
</g>
<g>
<title>one/nio/server/SelectorThread.run (18 samples, 40.91%)</title><rect x="36.8" y="243.0" width="482.7" height="15" fill="#60f160" rx="2" ry="2"/>
<text x="39.8" y="254.0">one/nio/server/SelectorThread.run</text>
</g>
<g>
<title>one/nio/net/Session.process (18 samples, 40.91%)</title><rect x="36.8" y="227.0" width="482.7" height="15" fill="#5bec5b" rx="2" ry="2"/>
<text x="39.8" y="238.0">one/nio/net/Session.process</text>
</g>
<g>
<title>one/nio/http/HttpSession.processRead (18 samples, 40.91%)</title><rect x="36.8" y="211.0" width="482.7" height="15" fill="#56e756" rx="2" ry="2"/>
<text x="39.8" y="222.0">one/nio/http/HttpSession.processRead</text>
</g>
<g>
<title>one/nio/http/HttpSession.processHttpBuffer (18 samples, 40.91%)</title><rect x="36.8" y="195.0" width="482.7" height="15" fill="#5bec5b" rx="2" ry="2"/>
<text x="39.8" y="206.0">one/nio/http/HttpSession.processHttpBuffer</text>
</g>
<g>
<title>one/nio/http/HttpSession.handleParsedRequest (12 samples, 27.27%)</title><rect x="36.8" y="179.0" width="321.8" height="15" fill="#62f362" rx="2" ry="2"/>
<text x="39.8" y="190.0">one/nio/http/HttpSession.handleParsedRequest</text>
</g>
<g>
<title>one/nio/http/HttpServer.handleRequest (12 samples, 27.27%)</title><rect x="36.8" y="163.0" width="321.8" height="15" fill="#63f463" rx="2" ry="2"/>
<text x="39.8" y="174.0">one/nio/http/HttpServer.handleRequest</text>
</g>
<g>
<title>RequestHandler1_entity.handleRequest (12 samples, 27.27%)</title><rect x="36.8" y="147.0" width="321.8" height="15" fill="#65f665" rx="2" ry="2"/>
<text x="39.8" y="158.0">RequestHandler1_entity.handleRequest</text>
</g>
<g>
<title>one/nio/http/HttpSession.sendResponse (5 samples, 11.36%)</title><rect x="36.8" y="131.0" width="134.1" height="15" fill="#60f160" rx="2" ry="2"/>
<text x="39.8" y="142.0">one/nio/http/Http..</text>
</g>
<g>
<title>one/nio/http/HttpSession.writeResponse (5 samples, 11.36%)</title><rect x="36.8" y="115.0" width="134.1" height="15" fill="#58e958" rx="2" ry="2"/>
<text x="39.8" y="126.0">one/nio/http/Http..</text>
</g>
<g>
<title>one/nio/http/Response.toBytes (4 samples, 9.09%)</title><rect x="36.8" y="99.0" width="107.3" height="15" fill="#68f968" rx="2" ry="2"/>
<text x="39.8" y="110.0">one/nio/http/..</text>
</g>
<g>
<title>one/nio/util/ByteArrayBuilder.&lt;init&gt; (4 samples, 9.09%)</title><rect x="36.8" y="83.0" width="107.3" height="15" fill="#5bec5b" rx="2" ry="2"/>
<text x="39.8" y="94.0">one/nio/util/..</text>
</g>
<g>
<title>byte[] (4 samples, 9.09%)</title><rect x="36.8" y="67.0" width="107.3" height="15" fill="#64d2d2" rx="2" ry="2"/>
<text x="39.8" y="78.0">byte[]</text>
</g>
<g>
<title>one/nio/net/Session.write (1 samples, 2.27%)</title><rect x="144.1" y="99.0" width="26.8" height="15" fill="#59ea59" rx="2" ry="2"/>
<text x="147.1" y="110.0">o..</text>
</g>
<g>
<title>one.nio.net.Session$ArrayQueueItem (1 samples, 2.27%)</title><rect x="144.1" y="83.0" width="26.8" height="15" fill="#50bebe" rx="2" ry="2"/>
<text x="147.1" y="94.0">o..</text>
</g>
<g>
<title>one/nio/http/Request.getParameter (2 samples, 4.55%)</title><rect x="170.9" y="131.0" width="53.6" height="15" fill="#53e453" rx="2" ry="2"/>
<text x="173.9" y="142.0">one/n..</text>
</g>
<g>
<title>java/lang/String.substring (2 samples, 4.55%)</title><rect x="170.9" y="115.0" width="53.6" height="15" fill="#5ff05f" rx="2" ry="2"/>
<text x="173.9" y="126.0">java/..</text>
</g>
<g>
<title>java/lang/StringLatin1.newString (2 samples, 4.55%)</title><rect x="170.9" y="99.0" width="53.6" height="15" fill="#67f867" rx="2" ry="2"/>
<text x="173.9" y="110.0">java/..</text>
</g>
<g>
<title>java/util/Arrays.copyOfRange (2 samples, 4.55%)</title><rect x="170.9" y="83.0" width="53.6" height="15" fill="#56e756" rx="2" ry="2"/>
<text x="173.9" y="94.0">java/..</text>
</g>
<g>
<title>byte[] (2 samples, 4.55%)</title><rect x="170.9" y="67.0" width="53.6" height="15" fill="#51bfbf" rx="2" ry="2"/>
<text x="173.9" y="78.0">byte[]</text>
</g>
<g>
<title>ru/mail/polis/service/rubtsov/MyService.entity (5 samples, 11.36%)</title><rect x="224.5" y="131.0" width="134.1" height="15" fill="#52e352" rx="2" ry="2"/>
<text x="227.5" y="142.0">ru/mail/polis/ser..</text>
</g>
<g>
<title>java/nio/ByteBuffer.wrap (2 samples, 4.55%)</title><rect x="224.5" y="115.0" width="53.7" height="15" fill="#54e554" rx="2" ry="2"/>
<text x="227.5" y="126.0">java/..</text>
</g>
<g>
<title>java/nio/ByteBuffer.wrap (2 samples, 4.55%)</title><rect x="224.5" y="99.0" width="53.7" height="15" fill="#65f665" rx="2" ry="2"/>
<text x="227.5" y="110.0">java/..</text>
</g>
<g>
<title>java.nio.HeapByteBuffer (2 samples, 4.55%)</title><rect x="224.5" y="83.0" width="53.7" height="15" fill="#58c6c6" rx="2" ry="2"/>
<text x="227.5" y="94.0">java...</text>
</g>
<g>
<title>one/nio/http/Response.&lt;init&gt; (2 samples, 4.55%)</title><rect x="278.2" y="115.0" width="53.6" height="15" fill="#51e251" rx="2" ry="2"/>
<text x="281.2" y="126.0">one/n..</text>
</g>
<g>
<title>java.lang.String (2 samples, 4.55%)</title><rect x="278.2" y="99.0" width="53.6" height="15" fill="#5ecccc" rx="2" ry="2"/>
<text x="281.2" y="110.0">java...</text>
</g>
<g>
<title>ru/mail/polis/dao/rubtsov/MyDAO.upsert (1 samples, 2.27%)</title><rect x="331.8" y="115.0" width="26.8" height="15" fill="#5dee5d" rx="2" ry="2"/>
<text x="334.8" y="126.0">r..</text>
</g>
<g>
<title>ru/mail/polis/dao/rubtsov/MemTablePool.upsert (1 samples, 2.27%)</title><rect x="331.8" y="99.0" width="26.8" height="15" fill="#5ff05f" rx="2" ry="2"/>
<text x="334.8" y="110.0">r..</text>
</g>
<g>
<title>ru/mail/polis/dao/rubtsov/MemTable.upsert (1 samples, 2.27%)</title><rect x="331.8" y="83.0" width="26.8" height="15" fill="#5dee5d" rx="2" ry="2"/>
<text x="334.8" y="94.0">r..</text>
</g>
<g>
<title>ru/mail/polis/dao/rubtsov/Item.of (1 samples, 2.27%)</title><rect x="331.8" y="67.0" width="26.8" height="15" fill="#54e554" rx="2" ry="2"/>
<text x="334.8" y="78.0">r..</text>
</g>
<g>
<title>java/nio/HeapByteBuffer.duplicate (1 samples, 2.27%)</title><rect x="331.8" y="51.0" width="26.8" height="15" fill="#58e958" rx="2" ry="2"/>
<text x="334.8" y="62.0">j..</text>
</g>
<g>
<title>java.nio.HeapByteBuffer (1 samples, 2.27%)</title><rect x="331.8" y="35.0" width="26.8" height="15" fill="#69d7d7" rx="2" ry="2"/>
<text x="334.8" y="46.0">j..</text>
</g>
<g>
<title>one/nio/http/HttpSession.parseRequest (3 samples, 6.82%)</title><rect x="358.6" y="179.0" width="80.5" height="15" fill="#64f564" rx="2" ry="2"/>
<text x="361.6" y="190.0">one/nio/h..</text>
</g>
<g>
<title>one.nio.http.Request (1 samples, 2.27%)</title><rect x="358.6" y="163.0" width="26.9" height="15" fill="#61cfcf" rx="2" ry="2"/>
<text x="361.6" y="174.0">o..</text>
</g>
<g>
<title>one/nio/http/Request.&lt;init&gt; (1 samples, 2.27%)</title><rect x="385.5" y="163.0" width="26.8" height="15" fill="#64f564" rx="2" ry="2"/>
<text x="388.5" y="174.0">o..</text>
</g>
<g>
<title>java.lang.String[] (1 samples, 2.27%)</title><rect x="385.5" y="147.0" width="26.8" height="15" fill="#59c7c7" rx="2" ry="2"/>
<text x="388.5" y="158.0">j..</text>
</g>
<g>
<title>one/nio/util/Utf8.read (1 samples, 2.27%)</title><rect x="412.3" y="163.0" width="26.8" height="15" fill="#51e251" rx="2" ry="2"/>
<text x="415.3" y="174.0">o..</text>
</g>
<g>
<title>one/nio/util/Utf8.read (1 samples, 2.27%)</title><rect x="412.3" y="147.0" width="26.8" height="15" fill="#6dfe6d" rx="2" ry="2"/>
<text x="415.3" y="158.0">o..</text>
</g>
<g>
<title>java/lang/String.&lt;init&gt; (1 samples, 2.27%)</title><rect x="412.3" y="131.0" width="26.8" height="15" fill="#60f160" rx="2" ry="2"/>
<text x="415.3" y="142.0">j..</text>
</g>
<g>
<title>java/lang/String.&lt;init&gt; (1 samples, 2.27%)</title><rect x="412.3" y="115.0" width="26.8" height="15" fill="#50e150" rx="2" ry="2"/>
<text x="415.3" y="126.0">j..</text>
</g>
<g>
<title>java/lang/StringUTF16.compress (1 samples, 2.27%)</title><rect x="412.3" y="99.0" width="26.8" height="15" fill="#69fa69" rx="2" ry="2"/>
<text x="415.3" y="110.0">j..</text>
</g>
<g>
<title>byte[] (1 samples, 2.27%)</title><rect x="412.3" y="83.0" width="26.8" height="15" fill="#50bebe" rx="2" ry="2"/>
<text x="415.3" y="94.0">b..</text>
</g>
<g>
<title>one/nio/http/Request.getHeader (1 samples, 2.27%)</title><rect x="439.1" y="179.0" width="26.8" height="15" fill="#5bec5b" rx="2" ry="2"/>
<text x="442.1" y="190.0">o..</text>
</g>
<g>
<title>java/lang/String.substring (1 samples, 2.27%)</title><rect x="439.1" y="163.0" width="26.8" height="15" fill="#5eef5e" rx="2" ry="2"/>
<text x="442.1" y="174.0">j..</text>
</g>
<g>
<title>java/lang/StringLatin1.newString (1 samples, 2.27%)</title><rect x="439.1" y="147.0" width="26.8" height="15" fill="#61f261" rx="2" ry="2"/>
<text x="442.1" y="158.0">j..</text>
</g>
<g>
<title>java.lang.String (1 samples, 2.27%)</title><rect x="439.1" y="131.0" width="26.8" height="15" fill="#66d4d4" rx="2" ry="2"/>
<text x="442.1" y="142.0">j..</text>
</g>
<g>
<title>one/nio/util/Utf8.read (2 samples, 4.55%)</title><rect x="465.9" y="179.0" width="53.6" height="15" fill="#64f564" rx="2" ry="2"/>
<text x="468.9" y="190.0">one/n..</text>
</g>
<g>
<title>one/nio/util/Utf8.read (2 samples, 4.55%)</title><rect x="465.9" y="163.0" width="53.6" height="15" fill="#60f160" rx="2" ry="2"/>
<text x="468.9" y="174.0">one/n..</text>
</g>
<g>
<title>char[] (2 samples, 4.55%)</title><rect x="465.9" y="147.0" width="53.6" height="15" fill="#51bfbf" rx="2" ry="2"/>
<text x="468.9" y="158.0">char[]</text>
</g>
<g>
<title>[NIO Selector #2 tid=24579] (12 samples, 27.27%)</title><rect x="519.5" y="259.0" width="321.9" height="15" fill="#e45e5e" rx="2" ry="2"/>
<text x="522.5" y="270.0">[NIO Selector #2 tid=24579]</text>
</g>
<g>
<title>one/nio/server/SelectorThread.run (12 samples, 27.27%)</title><rect x="519.5" y="243.0" width="321.9" height="15" fill="#6dfe6d" rx="2" ry="2"/>
<text x="522.5" y="254.0">one/nio/server/SelectorThread.run</text>
</g>
<g>
<title>one/nio/net/Session.process (12 samples, 27.27%)</title><rect x="519.5" y="227.0" width="321.9" height="15" fill="#55e655" rx="2" ry="2"/>
<text x="522.5" y="238.0">one/nio/net/Session.process</text>
</g>
<g>
<title>one/nio/http/HttpSession.processRead (12 samples, 27.27%)</title><rect x="519.5" y="211.0" width="321.9" height="15" fill="#5aeb5a" rx="2" ry="2"/>
<text x="522.5" y="222.0">one/nio/http/HttpSession.processRead</text>
</g>
<g>
<title>one/nio/http/HttpSession.processHttpBuffer (12 samples, 27.27%)</title><rect x="519.5" y="195.0" width="321.9" height="15" fill="#62f362" rx="2" ry="2"/>
<text x="522.5" y="206.0">one/nio/http/HttpSession.processHttpBuffer</text>
</g>
<g>
<title>one/nio/http/HttpSession.handleParsedRequest (6 samples, 13.64%)</title><rect x="519.5" y="179.0" width="161.0" height="15" fill="#62f362" rx="2" ry="2"/>
<text x="522.5" y="190.0">one/nio/http/HttpSes..</text>
</g>
<g>
<title>one/nio/http/HttpServer.handleRequest (6 samples, 13.64%)</title><rect x="519.5" y="163.0" width="161.0" height="15" fill="#53e453" rx="2" ry="2"/>
<text x="522.5" y="174.0">one/nio/http/HttpSer..</text>
</g>
<g>
<title>RequestHandler1_entity.handleRequest (6 samples, 13.64%)</title><rect x="519.5" y="147.0" width="161.0" height="15" fill="#60f160" rx="2" ry="2"/>
<text x="522.5" y="158.0">RequestHandler1_enti..</text>
</g>
<g>
<title>one/nio/http/HttpSession.sendResponse (3 samples, 6.82%)</title><rect x="519.5" y="131.0" width="80.5" height="15" fill="#6cfd6c" rx="2" ry="2"/>
<text x="522.5" y="142.0">one/nio/h..</text>
</g>
<g>
<title>one/nio/http/HttpSession.writeResponse (3 samples, 6.82%)</title><rect x="519.5" y="115.0" width="80.5" height="15" fill="#5aeb5a" rx="2" ry="2"/>
<text x="522.5" y="126.0">one/nio/h..</text>
</g>
<g>
<title>one/nio/http/Response.toBytes (3 samples, 6.82%)</title><rect x="519.5" y="99.0" width="80.5" height="15" fill="#69fa69" rx="2" ry="2"/>
<text x="522.5" y="110.0">one/nio/h..</text>
</g>
<g>
<title>one/nio/util/ByteArrayBuilder.&lt;init&gt; (3 samples, 6.82%)</title><rect x="519.5" y="83.0" width="80.5" height="15" fill="#6dfe6d" rx="2" ry="2"/>
<text x="522.5" y="94.0">one/nio/u..</text>
</g>
<g>
<title>byte[] (3 samples, 6.82%)</title><rect x="519.5" y="67.0" width="80.5" height="15" fill="#57c5c5" rx="2" ry="2"/>
<text x="522.5" y="78.0">byte[]</text>
</g>
<g>
<title>one/nio/http/Request.getParameter (1 samples, 2.27%)</title><rect x="600.0" y="131.0" width="26.8" height="15" fill="#57e857" rx="2" ry="2"/>
<text x="603.0" y="142.0">o..</text>
</g>
<g>
<title>java/lang/String.substring (1 samples, 2.27%)</title><rect x="600.0" y="115.0" width="26.8" height="15" fill="#5ced5c" rx="2" ry="2"/>
<text x="603.0" y="126.0">j..</text>
</g>
<g>
<title>java/lang/StringLatin1.newString (1 samples, 2.27%)</title><rect x="600.0" y="99.0" width="26.8" height="15" fill="#68f968" rx="2" ry="2"/>
<text x="603.0" y="110.0">j..</text>
</g>
<g>
<title>java/util/Arrays.copyOfRange (1 samples, 2.27%)</title><rect x="600.0" y="83.0" width="26.8" height="15" fill="#6afb6a" rx="2" ry="2"/>
<text x="603.0" y="94.0">j..</text>
</g>
<g>
<title>byte[] (1 samples, 2.27%)</title><rect x="600.0" y="67.0" width="26.8" height="15" fill="#57c5c5" rx="2" ry="2"/>
<text x="603.0" y="78.0">b..</text>
</g>
<g>
<title>ru/mail/polis/service/rubtsov/MyService.entity (2 samples, 4.55%)</title><rect x="626.8" y="131.0" width="53.7" height="15" fill="#66f766" rx="2" ry="2"/>
<text x="629.8" y="142.0">ru/ma..</text>
</g>
<g>
<title>one/nio/http/Response.&lt;init&gt; (1 samples, 2.27%)</title><rect x="626.8" y="115.0" width="26.8" height="15" fill="#64f564" rx="2" ry="2"/>
<text x="629.8" y="126.0">o..</text>
</g>
<g>
<title>java.lang.String[] (1 samples, 2.27%)</title><rect x="626.8" y="99.0" width="26.8" height="15" fill="#5dcbcb" rx="2" ry="2"/>
<text x="629.8" y="110.0">j..</text>
</g>
<g>
<title>ru/mail/polis/dao/rubtsov/MyDAO.upsert (1 samples, 2.27%)</title><rect x="653.6" y="115.0" width="26.9" height="15" fill="#57e857" rx="2" ry="2"/>
<text x="656.6" y="126.0">r..</text>
</g>
<g>
<title>ru/mail/polis/dao/rubtsov/MemTablePool.upsert (1 samples, 2.27%)</title><rect x="653.6" y="99.0" width="26.9" height="15" fill="#63f463" rx="2" ry="2"/>
<text x="656.6" y="110.0">r..</text>
</g>
<g>
<title>ru/mail/polis/dao/rubtsov/MemTable.upsert (1 samples, 2.27%)</title><rect x="653.6" y="83.0" width="26.9" height="15" fill="#53e453" rx="2" ry="2"/>
<text x="656.6" y="94.0">r..</text>
</g>
<g>
<title>ru/mail/polis/dao/rubtsov/Item.of (1 samples, 2.27%)</title><rect x="653.6" y="67.0" width="26.9" height="15" fill="#56e756" rx="2" ry="2"/>
<text x="656.6" y="78.0">r..</text>
</g>
<g>
<title>java/nio/HeapByteBuffer.duplicate (1 samples, 2.27%)</title><rect x="653.6" y="51.0" width="26.9" height="15" fill="#53e453" rx="2" ry="2"/>
<text x="656.6" y="62.0">j..</text>
</g>
<g>
<title>java.nio.HeapByteBuffer (1 samples, 2.27%)</title><rect x="653.6" y="35.0" width="26.9" height="15" fill="#60cece" rx="2" ry="2"/>
<text x="656.6" y="46.0">j..</text>
</g>
<g>
<title>one/nio/http/HttpSession.parseRequest (2 samples, 4.55%)</title><rect x="680.5" y="179.0" width="53.6" height="15" fill="#50e150" rx="2" ry="2"/>
<text x="683.5" y="190.0">one/n..</text>
</g>
<g>
<title>one/nio/http/Request.&lt;init&gt; (1 samples, 2.27%)</title><rect x="680.5" y="163.0" width="26.8" height="15" fill="#55e655" rx="2" ry="2"/>
<text x="683.5" y="174.0">o..</text>
</g>
<g>
<title>java.lang.String[] (1 samples, 2.27%)</title><rect x="680.5" y="147.0" width="26.8" height="15" fill="#61cfcf" rx="2" ry="2"/>
<text x="683.5" y="158.0">j..</text>
</g>
<g>
<title>one/nio/util/Utf8.read (1 samples, 2.27%)</title><rect x="707.3" y="163.0" width="26.8" height="15" fill="#5ced5c" rx="2" ry="2"/>
<text x="710.3" y="174.0">o..</text>
</g>
<g>
<title>one/nio/util/Utf8.read (1 samples, 2.27%)</title><rect x="707.3" y="147.0" width="26.8" height="15" fill="#52e352" rx="2" ry="2"/>
<text x="710.3" y="158.0">o..</text>
</g>
<g>
<title>char[] (1 samples, 2.27%)</title><rect x="707.3" y="131.0" width="26.8" height="15" fill="#64d2d2" rx="2" ry="2"/>
<text x="710.3" y="142.0">c..</text>
</g>
<g>
<title>one/nio/http/Request.getHeader (1 samples, 2.27%)</title><rect x="734.1" y="179.0" width="26.8" height="15" fill="#5bec5b" rx="2" ry="2"/>
<text x="737.1" y="190.0">o..</text>
</g>
<g>
<title>java/lang/String.substring (1 samples, 2.27%)</title><rect x="734.1" y="163.0" width="26.8" height="15" fill="#69fa69" rx="2" ry="2"/>
<text x="737.1" y="174.0">j..</text>
</g>
<g>
<title>java/lang/StringLatin1.newString (1 samples, 2.27%)</title><rect x="734.1" y="147.0" width="26.8" height="15" fill="#53e453" rx="2" ry="2"/>
<text x="737.1" y="158.0">j..</text>
</g>
<g>
<title>java/util/Arrays.copyOfRange (1 samples, 2.27%)</title><rect x="734.1" y="131.0" width="26.8" height="15" fill="#6dfe6d" rx="2" ry="2"/>
<text x="737.1" y="142.0">j..</text>
</g>
<g>
<title>byte[] (1 samples, 2.27%)</title><rect x="734.1" y="115.0" width="26.8" height="15" fill="#50bebe" rx="2" ry="2"/>
<text x="737.1" y="126.0">b..</text>
</g>
<g>
<title>one/nio/util/Utf8.read (3 samples, 6.82%)</title><rect x="760.9" y="179.0" width="80.5" height="15" fill="#52e352" rx="2" ry="2"/>
<text x="763.9" y="190.0">one/nio/u..</text>
</g>
<g>
<title>one/nio/util/Utf8.read (3 samples, 6.82%)</title><rect x="760.9" y="163.0" width="80.5" height="15" fill="#5eef5e" rx="2" ry="2"/>
<text x="763.9" y="174.0">one/nio/u..</text>
</g>
<g>
<title>char[] (3 samples, 6.82%)</title><rect x="760.9" y="147.0" width="80.5" height="15" fill="#67d5d5" rx="2" ry="2"/>
<text x="763.9" y="158.0">char[]</text>
</g>
<g>
<title>[NIO Selector #3 tid=25091] (13 samples, 29.55%)</title><rect x="841.4" y="259.0" width="348.6" height="15" fill="#fd7f7f" rx="2" ry="2"/>
<text x="844.4" y="270.0">[NIO Selector #3 tid=25091]</text>
</g>
<g>
<title>one/nio/server/SelectorThread.run (13 samples, 29.55%)</title><rect x="841.4" y="243.0" width="348.6" height="15" fill="#57e857" rx="2" ry="2"/>
<text x="844.4" y="254.0">one/nio/server/SelectorThread.run</text>
</g>
<g>
<title>one/nio/net/JavaSelector.select (1 samples, 2.27%)</title><rect x="841.4" y="227.0" width="26.8" height="15" fill="#5aeb5a" rx="2" ry="2"/>
<text x="844.4" y="238.0">o..</text>
</g>
<g>
<title>one/nio/net/JavaSelector.iteratorFor (1 samples, 2.27%)</title><rect x="841.4" y="211.0" width="26.8" height="15" fill="#67f867" rx="2" ry="2"/>
<text x="844.4" y="222.0">o..</text>
</g>
<g>
<title>one.nio.net.Session[] (1 samples, 2.27%)</title><rect x="841.4" y="195.0" width="26.8" height="15" fill="#5ecccc" rx="2" ry="2"/>
<text x="844.4" y="206.0">o..</text>
</g>
<g>
<title>one/nio/net/Session.process (12 samples, 27.27%)</title><rect x="868.2" y="227.0" width="321.8" height="15" fill="#66f766" rx="2" ry="2"/>
<text x="871.2" y="238.0">one/nio/net/Session.process</text>
</g>
<g>
<title>one/nio/http/HttpSession.processRead (12 samples, 27.27%)</title><rect x="868.2" y="211.0" width="321.8" height="15" fill="#64f564" rx="2" ry="2"/>
<text x="871.2" y="222.0">one/nio/http/HttpSession.processRead</text>
</g>
<g>
<title>one/nio/http/HttpSession.processHttpBuffer (10 samples, 22.73%)</title><rect x="868.2" y="195.0" width="268.2" height="15" fill="#64f564" rx="2" ry="2"/>
<text x="871.2" y="206.0">one/nio/http/HttpSession.processHttp..</text>
</g>
<g>
<title>one/nio/http/HttpSession.handleParsedRequest (2 samples, 4.55%)</title><rect x="868.2" y="179.0" width="53.6" height="15" fill="#66f766" rx="2" ry="2"/>
<text x="871.2" y="190.0">one/n..</text>
</g>
<g>
<title>one/nio/http/HttpServer.handleRequest (2 samples, 4.55%)</title><rect x="868.2" y="163.0" width="53.6" height="15" fill="#51e251" rx="2" ry="2"/>
<text x="871.2" y="174.0">one/n..</text>
</g>
<g>
<title>RequestHandler1_entity.handleRequest (2 samples, 4.55%)</title><rect x="868.2" y="147.0" width="53.6" height="15" fill="#56e756" rx="2" ry="2"/>
<text x="871.2" y="158.0">Reque..</text>
</g>
<g>
<title>one/nio/http/HttpSession.sendResponse (1 samples, 2.27%)</title><rect x="868.2" y="131.0" width="26.8" height="15" fill="#56e756" rx="2" ry="2"/>
<text x="871.2" y="142.0">o..</text>
</g>
<g>
<title>one/nio/http/HttpSession.writeResponse (1 samples, 2.27%)</title><rect x="868.2" y="115.0" width="26.8" height="15" fill="#60f160" rx="2" ry="2"/>
<text x="871.2" y="126.0">o..</text>
</g>
<g>
<title>one/nio/http/Response.toBytes (1 samples, 2.27%)</title><rect x="868.2" y="99.0" width="26.8" height="15" fill="#63f463" rx="2" ry="2"/>
<text x="871.2" y="110.0">o..</text>
</g>
<g>
<title>one/nio/util/ByteArrayBuilder.&lt;init&gt; (1 samples, 2.27%)</title><rect x="868.2" y="83.0" width="26.8" height="15" fill="#62f362" rx="2" ry="2"/>
<text x="871.2" y="94.0">o..</text>
</g>
<g>
<title>byte[] (1 samples, 2.27%)</title><rect x="868.2" y="67.0" width="26.8" height="15" fill="#5bc9c9" rx="2" ry="2"/>
<text x="871.2" y="78.0">b..</text>
</g>
<g>
<title>ru/mail/polis/service/rubtsov/MyService.entity (1 samples, 2.27%)</title><rect x="895.0" y="131.0" width="26.8" height="15" fill="#56e756" rx="2" ry="2"/>
<text x="898.0" y="142.0">r..</text>
</g>
<g>
<title>java/lang/String.getBytes (1 samples, 2.27%)</title><rect x="895.0" y="115.0" width="26.8" height="15" fill="#57e857" rx="2" ry="2"/>
<text x="898.0" y="126.0">j..</text>
</g>
<g>
<title>java/lang/StringCoding.encode (1 samples, 2.27%)</title><rect x="895.0" y="99.0" width="26.8" height="15" fill="#63f463" rx="2" ry="2"/>
<text x="898.0" y="110.0">j..</text>
</g>
<g>
<title>java/lang/StringCoding.encodeUTF8 (1 samples, 2.27%)</title><rect x="895.0" y="83.0" width="26.8" height="15" fill="#54e554" rx="2" ry="2"/>
<text x="898.0" y="94.0">j..</text>
</g>
<g>
<title>java/util/Arrays.copyOf (1 samples, 2.27%)</title><rect x="895.0" y="67.0" width="26.8" height="15" fill="#66f766" rx="2" ry="2"/>
<text x="898.0" y="78.0">j..</text>
</g>
<g>
<title>byte[] (1 samples, 2.27%)</title><rect x="895.0" y="51.0" width="26.8" height="15" fill="#54c2c2" rx="2" ry="2"/>
<text x="898.0" y="62.0">b..</text>
</g>
<g>
<title>one/nio/http/HttpSession.parseRequest (4 samples, 9.09%)</title><rect x="921.8" y="179.0" width="107.3" height="15" fill="#51e251" rx="2" ry="2"/>
<text x="924.8" y="190.0">one/nio/http/..</text>
</g>
<g>
<title>one.nio.http.Request (1 samples, 2.27%)</title><rect x="921.8" y="163.0" width="26.8" height="15" fill="#63d1d1" rx="2" ry="2"/>
<text x="924.8" y="174.0">o..</text>
</g>
<g>
<title>one/nio/http/Request.&lt;init&gt; (2 samples, 4.55%)</title><rect x="948.6" y="163.0" width="53.7" height="15" fill="#53e453" rx="2" ry="2"/>
<text x="951.6" y="174.0">one/n..</text>
</g>
<g>
<title>java.lang.String[] (2 samples, 4.55%)</title><rect x="948.6" y="147.0" width="53.7" height="15" fill="#6cdada" rx="2" ry="2"/>
<text x="951.6" y="158.0">java...</text>
</g>
<g>
<title>one/nio/util/Utf8.read (1 samples, 2.27%)</title><rect x="1002.3" y="163.0" width="26.8" height="15" fill="#5eef5e" rx="2" ry="2"/>
<text x="1005.3" y="174.0">o..</text>
</g>
<g>
<title>one/nio/util/Utf8.read (1 samples, 2.27%)</title><rect x="1002.3" y="147.0" width="26.8" height="15" fill="#62f362" rx="2" ry="2"/>
<text x="1005.3" y="158.0">o..</text>
</g>
<g>
<title>char[] (1 samples, 2.27%)</title><rect x="1002.3" y="131.0" width="26.8" height="15" fill="#6bd9d9" rx="2" ry="2"/>
<text x="1005.3" y="142.0">c..</text>
</g>
<g>
<title>one/nio/http/Request.getHeader (1 samples, 2.27%)</title><rect x="1029.1" y="179.0" width="26.8" height="15" fill="#50e150" rx="2" ry="2"/>
<text x="1032.1" y="190.0">o..</text>
</g>
<g>
<title>java/lang/String.substring (1 samples, 2.27%)</title><rect x="1029.1" y="163.0" width="26.8" height="15" fill="#61f261" rx="2" ry="2"/>
<text x="1032.1" y="174.0">j..</text>
</g>
<g>
<title>java/lang/StringLatin1.newString (1 samples, 2.27%)</title><rect x="1029.1" y="147.0" width="26.8" height="15" fill="#65f665" rx="2" ry="2"/>
<text x="1032.1" y="158.0">j..</text>
</g>
<g>
<title>java.lang.String (1 samples, 2.27%)</title><rect x="1029.1" y="131.0" width="26.8" height="15" fill="#5ecccc" rx="2" ry="2"/>
<text x="1032.1" y="142.0">j..</text>
</g>
<g>
<title>one/nio/util/Utf8.read (3 samples, 6.82%)</title><rect x="1055.9" y="179.0" width="80.5" height="15" fill="#51e251" rx="2" ry="2"/>
<text x="1058.9" y="190.0">one/nio/u..</text>
</g>
<g>
<title>one/nio/util/Utf8.read (3 samples, 6.82%)</title><rect x="1055.9" y="163.0" width="80.5" height="15" fill="#5dee5d" rx="2" ry="2"/>
<text x="1058.9" y="174.0">one/nio/u..</text>
</g>
<g>
<title>char[] (2 samples, 4.55%)</title><rect x="1055.9" y="147.0" width="53.6" height="15" fill="#5fcdcd" rx="2" ry="2"/>
<text x="1058.9" y="158.0">char[]</text>
</g>
<g>
<title>java/lang/String.&lt;init&gt; (1 samples, 2.27%)</title><rect x="1109.5" y="147.0" width="26.9" height="15" fill="#67f867" rx="2" ry="2"/>
<text x="1112.5" y="158.0">j..</text>
</g>
<g>
<title>java/lang/String.&lt;init&gt; (1 samples, 2.27%)</title><rect x="1109.5" y="131.0" width="26.9" height="15" fill="#51e251" rx="2" ry="2"/>
<text x="1112.5" y="142.0">j..</text>
</g>
<g>
<title>java/lang/StringUTF16.compress (1 samples, 2.27%)</title><rect x="1109.5" y="115.0" width="26.9" height="15" fill="#5dee5d" rx="2" ry="2"/>
<text x="1112.5" y="126.0">j..</text>
</g>
<g>
<title>byte[] (1 samples, 2.27%)</title><rect x="1109.5" y="99.0" width="26.9" height="15" fill="#6ddbdb" rx="2" ry="2"/>
<text x="1112.5" y="110.0">b..</text>
</g>
<g>
<title>one/nio/net/Session.read (2 samples, 4.55%)</title><rect x="1136.4" y="195.0" width="53.6" height="15" fill="#5eef5e" rx="2" ry="2"/>
<text x="1139.4" y="206.0">one/n..</text>
</g>
<g>
<title>one/nio/net/JavaSocket.read (2 samples, 4.55%)</title><rect x="1136.4" y="179.0" width="53.6" height="15" fill="#59ea59" rx="2" ry="2"/>
<text x="1139.4" y="190.0">one/n..</text>
</g>
<g>
<title>java/nio/ByteBuffer.wrap (2 samples, 4.55%)</title><rect x="1136.4" y="163.0" width="53.6" height="15" fill="#5dee5d" rx="2" ry="2"/>
<text x="1139.4" y="174.0">java/..</text>
</g>
<g>
<title>java.nio.HeapByteBuffer (2 samples, 4.55%)</title><rect x="1136.4" y="147.0" width="53.6" height="15" fill="#66d4d4" rx="2" ry="2"/>
<text x="1139.4" y="158.0">java...</text>
</g>
</g>
</svg>
